<?xml version="1.0" encoding="utf-8"?>
<!-- Generator: Adobe Illustrator 26.0.3, SVG Export Plug-In . SVG Version: 6.00 Build 0)  -->
<svg version="1.1" id="Layer_1" xmlns="http://www.w3.org/2000/svg" xmlns:xlink="http://www.w3.org/1999/xlink" x="0px" y="0px"
	 viewBox="0 0 125 125" style="enable-background:new 0 0 125 125;" xml:space="preserve">
<style type="text/css">
	.st0{fill:#FFFFFF;}
</style>
<g>
	<path class="st0" d="M40.7,22.7h23.8c3.8,0,7,2.8,7.5,6.5h6.4c-1.1-7.3-7.3-13-15-13H41.7c-8.4,0-15.1,6.8-15.1,15.1v41.1
		c0,7.6,5.6,13.9,13,15V81c-3.7-0.5-6.5-3.7-6.5-7.5V30.2C33.1,26.1,36.5,22.7,40.7,22.7z"/>
	<path class="st0" d="M82.8,35.6H61.2c-8.4,0-15.1,6.8-15.1,15.1v41.1c0,8.4,6.8,15.1,15.1,15.1h21.6c8.4,0,15.1-6.8,15.1-15.1V50.8
		C98,42.4,91.2,35.6,82.8,35.6z M91.5,92.9c0,4.2-3.4,7.6-7.6,7.6H60.1c-4.2,0-7.6-3.4-7.6-7.6V49.7c0-4.2,3.4-7.6,7.6-7.6h23.8
		c4.2,0,7.6,3.4,7.6,7.6V92.9z"/>
</g>
</svg>
