<?xml version="1.0" encoding="utf-8"?>
<!-- Generator: Adobe Illustrator 26.0.3, SVG Export Plug-In . SVG Version: 6.00 Build 0)  -->
<svg version="1.1" id="Layer_1" xmlns="http://www.w3.org/2000/svg" xmlns:xlink="http://www.w3.org/1999/xlink" x="0px" y="0px"
	 viewBox="0 0 455 455" style="enable-background:new 0 0 455 455;" xml:space="preserve">
<style type="text/css">
	.st0{fill:none;}
	.st1{fill:#FFFFFF;}
</style>
<g>
	<path class="st0" d="M307.3,170.1c-35.9,0-51.9,19.7-60.9,33.5v0.7H246c0.1-0.2,0.3-0.4,0.4-0.7v-28.8h-67.5
		c0.9,19.1,0,203.1,0,203.1h67.5V264.6c0-6.1,0.5-12.1,2.2-16.5c4.9-12.1,16-24.7,34.6-24.7c24.4,0,34.2,18.6,34.2,45.9V378H385
		V261.5C385,199.2,351.7,170.1,307.3,170.1z"/>
	<path class="st0" d="M108.2,77C85.1,77,70,92.2,70,112.1c0,19.5,14.7,35.1,37.3,35.1h0.4c23.6,0,38.2-15.6,38.2-35.1
		C145.5,92.2,131.3,77,108.2,77z"/>
	<rect x="74" y="174.9" class="st0" width="67.5" height="203.1"/>
	<path class="st1" d="M246.4,204.3v-0.7v0c-0.1,0.2-0.3,0.4-0.4,0.7H246.4z"/>
	<path class="st1" d="M396.4,0H58.6C26.3,0,0,26.3,0,58.6v337.7C0,428.7,26.3,455,58.6,455h337.7c32.4,0,58.6-26.3,58.6-58.6V58.6
		C455,26.3,428.7,0,396.4,0z M141.5,378H74V174.9h67.5V378z M107.8,147.2h-0.4c-22.6,0-37.3-15.6-37.3-35.1
		C70,92.2,85.1,77,108.2,77c23.1,0,37.3,15.2,37.8,35.1C146,131.6,131.3,147.2,107.8,147.2z M385,378h-67.5V269.3
		c0-27.3-9.8-45.9-34.2-45.9c-18.7,0-29.8,12.5-34.6,24.7c-1.8,4.3-2.2,10.4-2.2,16.5V378h-67.5c0,0,0.9-184,0-203.1h67.5v28.8v0
		c9-13.8,25-33.5,60.9-33.5c44.4,0,77.7,29,77.7,91.4V378z"/>
</g>
</svg>
